<svg width="40" height="40" viewBox="0 0 40 40" fill="none" xmlns="http://www.w3.org/2000/svg">
<path d="M23.0717 26.45C24.0792 27.0952 25.2418 27.4573 26.4376 27.4985C27.6333 27.5396 28.818 27.2582 29.8675 26.6837C30.917 26.1093 31.7926 25.263 32.4024 24.2336C33.0122 23.2043 33.3338 22.0298 33.3333 20.8334C33.3333 18.77 32.295 15.6067 30.7 13.0034C29.1883 10.5367 27.54 9.16671 26.6667 9.16671C25.7933 9.16671 24.145 10.5367 22.6333 13.0034C22.0246 14.0033 21.5032 15.0538 21.075 16.1434C20.4743 14.9539 19.7617 13.8243 18.9467 12.77C20.87 9.01671 23.7667 5.83337 26.6667 5.83337C31.6667 5.83337 36.6667 15.31 36.6667 20.8334C36.6671 22.5797 36.2101 24.2956 35.3414 25.8105C34.4726 27.3253 33.2223 28.5863 31.7149 29.4678C30.2075 30.3494 28.4955 30.8209 26.7492 30.8353C25.003 30.8497 23.2834 30.4066 21.7617 29.55C22.3617 28.6117 22.8117 27.5667 23.0717 26.45ZM13.3333 34.1667C10.6812 34.1667 8.13762 33.1131 6.26226 31.2378C4.3869 29.3624 3.33333 26.8189 3.33333 24.1667C3.33333 18.6434 8.33333 9.16671 13.3333 9.16671C18.3333 9.16671 23.3333 18.6434 23.3333 24.1667C23.3333 26.8189 22.2798 29.3624 20.4044 31.2378C18.529 33.1131 15.9855 34.1667 13.3333 34.1667ZM13.3333 30.8334C15.1014 30.8334 16.7971 30.131 18.0474 28.8808C19.2976 27.6305 20 25.9348 20 24.1667C20 22.1034 18.9617 18.94 17.3667 16.3367C15.855 13.87 14.2067 12.5 13.3333 12.5C12.46 12.5 10.8117 13.87 9.29999 16.3367C7.70499 18.94 6.66666 22.1034 6.66666 24.1667C6.66666 25.9348 7.36904 27.6305 8.61928 28.8808C9.86953 30.131 11.5652 30.8334 13.3333 30.8334Z" fill="black"/>
</svg>
