<svg width="411" height="78" viewBox="0 0 411 78" fill="none" xmlns="http://www.w3.org/2000/svg">
<path d="M24.5547 53H18.9492V24.2109H27.6992L32.9336 46.8477L38.1289 24.2109H46.7812V53H41.1758V33.5273C41.1758 32.9674 41.1823 32.1862 41.1953 31.1836C41.2083 30.168 41.2148 29.3867 41.2148 28.8398L35.7656 53H29.9258L24.5156 28.8398C24.5156 29.3867 24.5221 30.168 24.5352 31.1836C24.5482 32.1862 24.5547 32.9674 24.5547 33.5273V53ZM68.0227 47.082H57.4172L55.425 53H49.1359L59.4094 24.2109H66.2062L76.4016 53H69.8781L68.0227 47.082ZM66.343 42.1211L62.7492 30.793L59.0383 42.1211H66.343ZM102.155 53H96.1391L84.3812 32.5508V53H78.7758V24.2109H85.0844L96.5492 44.3086V24.2109H102.155V53ZM118.982 53H106.58V24.2109H118.982C120.766 24.237 122.25 24.4453 123.435 24.8359C125.453 25.5 127.088 26.7174 128.338 28.4883C129.34 29.9206 130.024 31.4701 130.388 33.1367C130.753 34.8034 130.935 36.3919 130.935 37.9023C130.935 41.7305 130.167 44.9727 128.63 47.6289C126.547 51.2096 123.331 53 118.982 53ZM123.455 31.5547C122.53 29.9922 120.701 29.2109 117.966 29.2109H112.42V48H117.966C120.805 48 122.784 46.6003 123.904 43.8008C124.516 42.2643 124.822 40.4349 124.822 38.3125C124.822 35.3828 124.366 33.1302 123.455 31.5547ZM144.559 44.3477V24.2109H150.575V44.25C150.575 46.6979 150.152 48.638 149.305 50.0703C147.873 52.4922 145.289 53.7031 141.552 53.7031C137.815 53.7031 135.308 52.7266 134.032 50.7734C132.756 48.8073 132.118 46.1315 132.118 42.7461V42.082H137.802V42.7461C137.854 44.9727 138.095 46.5417 138.524 47.4531C138.967 48.3516 139.904 48.8008 141.337 48.8008C142.756 48.8008 143.693 48.306 144.149 47.3164C144.423 46.7305 144.559 45.7409 144.559 44.3477ZM175.391 40.4219H161.406V47.8242H177.344V53H155.527V24.2109H176.641V29.3086H161.406V35.4219H175.391V40.4219ZM191.28 48.8398C192.7 48.8398 193.852 48.6836 194.738 48.3711C196.417 47.7721 197.257 46.6589 197.257 45.0312C197.257 44.0807 196.84 43.3451 196.007 42.8242C195.174 42.3164 193.865 41.8672 192.081 41.4766L189.034 40.793C186.04 40.1159 183.969 39.3802 182.823 38.5859C180.883 37.2578 179.913 35.181 179.913 32.3555C179.913 29.7773 180.851 27.6354 182.726 25.9297C184.601 24.224 187.355 23.3711 190.988 23.3711C194.021 23.3711 196.606 24.1784 198.741 25.793C200.89 27.3945 202.016 29.7253 202.12 32.7852H196.339C196.235 31.0534 195.48 29.8229 194.073 29.0938C193.136 28.612 191.971 28.3711 190.577 28.3711C189.028 28.3711 187.791 28.6836 186.866 29.3086C185.942 29.9336 185.48 30.806 185.48 31.9258C185.48 32.9544 185.935 33.7227 186.847 34.2305C187.433 34.569 188.683 34.9661 190.597 35.4219L195.558 36.6133C197.732 37.1341 199.373 37.8307 200.48 38.7031C202.198 40.0573 203.058 42.0169 203.058 44.582C203.058 47.2122 202.049 49.3997 200.03 51.1445C198.025 52.8763 195.187 53.7422 191.515 53.7422C187.765 53.7422 184.816 52.8893 182.667 51.1836C180.519 49.4648 179.445 47.1081 179.445 44.1133H185.187C185.369 45.4284 185.727 46.4115 186.261 47.0625C187.238 48.2474 188.911 48.8398 191.28 48.8398ZM214.69 35.4609C215.927 34.5885 216.78 33.8789 217.248 33.332C218.017 32.4466 218.401 31.4635 218.401 30.3828C218.401 29.5365 218.121 28.8073 217.561 28.1953C217.001 27.5833 216.246 27.2773 215.295 27.2773C213.85 27.2773 212.847 27.7591 212.288 28.7227C212.001 29.2174 211.858 29.7578 211.858 30.3438C211.858 31.138 212.073 31.8997 212.502 32.6289C212.945 33.3581 213.674 34.3021 214.69 35.4609ZM213.791 50.5781C215.237 50.5781 216.48 50.2461 217.522 49.582C218.564 48.918 219.364 48.1758 219.924 47.3555L213.44 39.4453C211.604 40.6693 210.406 41.6068 209.846 42.2578C208.987 43.2344 208.557 44.4258 208.557 45.832C208.557 47.3555 209.11 48.5273 210.217 49.3477C211.337 50.168 212.528 50.5781 213.791 50.5781ZM211.487 37.043C210.276 35.6497 209.462 34.4779 209.045 33.5273C208.642 32.5768 208.44 31.6589 208.44 30.7734C208.44 28.9245 209.065 27.3945 210.315 26.1836C211.565 24.9596 213.238 24.3477 215.334 24.3477C217.327 24.3477 218.883 24.9141 220.002 26.0469C221.122 27.1797 221.682 28.5339 221.682 30.1094C221.682 31.9453 221.103 33.5534 219.944 34.9336C219.267 35.7409 218.134 36.6719 216.545 37.7266L221.78 43.9766C222.131 42.9349 222.372 42.1602 222.502 41.6523C222.646 41.1315 222.789 40.4089 222.932 39.4844H226.272C226.051 41.3203 225.608 43.0846 224.944 44.7773C224.28 46.457 223.948 47.1341 223.948 46.8086L229.045 53H224.514L221.819 49.7188C220.751 50.8776 219.774 51.724 218.889 52.2578C217.34 53.1953 215.556 53.6641 213.538 53.6641C210.556 53.6641 208.388 52.8633 207.034 51.2617C205.679 49.6471 205.002 47.8307 205.002 45.8125C205.002 43.638 205.66 41.8216 206.975 40.3633C207.782 39.4779 209.286 38.3711 211.487 37.043ZM231.864 53V24.2H242.384C244.25 24.2 245.784 24.4133 246.984 24.84C248.21 25.2667 249.17 25.8533 249.864 26.6C250.584 27.3467 251.077 28.2133 251.344 29.2C251.637 30.16 251.784 31.1733 251.784 32.24C251.784 33.84 251.45 35.16 250.784 36.2C250.144 37.24 249.304 38.0667 248.264 38.68C247.224 39.2667 246.037 39.68 244.704 39.92C243.397 40.16 242.077 40.28 240.744 40.28H234.584V53H231.864ZM240.824 37.96C242.104 37.96 243.25 37.88 244.264 37.72C245.277 37.56 246.13 37.2667 246.824 36.84C247.544 36.3867 248.09 35.7867 248.464 35.04C248.864 34.2667 249.064 33.2667 249.064 32.04C249.064 30.2267 248.464 28.8533 247.264 27.92C246.09 26.9867 244.21 26.52 241.624 26.52H234.584V37.96H240.824ZM255.277 24.2H257.997V41.36C257.997 44.9333 258.664 47.5067 259.997 49.08C261.33 50.6533 263.477 51.44 266.437 51.44C267.984 51.44 269.29 51.24 270.357 50.84C271.45 50.4133 272.33 49.7867 272.997 48.96C273.664 48.1067 274.144 47.0533 274.437 45.8C274.73 44.5467 274.877 43.0667 274.877 41.36V24.2H277.597V42.16C277.597 45.92 276.664 48.8 274.797 50.8C272.957 52.7733 270.17 53.76 266.437 53.76C262.677 53.76 259.877 52.7467 258.037 50.72C256.197 48.6933 255.277 45.84 255.277 42.16V24.2ZM282.944 24.2H285.664V41.36C285.664 44.9333 286.331 47.5067 287.664 49.08C288.997 50.6533 291.144 51.44 294.104 51.44C295.651 51.44 296.957 51.24 298.024 50.84C299.117 50.4133 299.997 49.7867 300.664 48.96C301.331 48.1067 301.811 47.0533 302.104 45.8C302.397 44.5467 302.544 43.0667 302.544 41.36V24.2H305.264V42.16C305.264 45.92 304.331 48.8 302.464 50.8C300.624 52.7733 297.837 53.76 294.104 53.76C290.344 53.76 287.544 52.7467 285.704 50.72C283.864 48.6933 282.944 45.84 282.944 42.16V24.2ZM307.971 24.2H328.931V26.52H319.811V53H317.091V26.52H307.971V24.2ZM331.958 43.88C331.958 44.7867 331.984 45.68 332.038 46.56C332.118 47.44 332.318 48.24 332.638 48.96C332.984 49.6533 333.504 50.2133 334.198 50.64C334.918 51.0667 335.904 51.28 337.158 51.28C339.024 51.28 340.331 50.7467 341.078 49.68C341.851 48.6133 342.238 47.0667 342.238 45.04V24.2H344.958V45.12C344.958 47.92 344.304 50.0667 342.998 51.56C341.691 53.0267 339.638 53.76 336.838 53.76C335.211 53.76 333.904 53.4933 332.918 52.96C331.931 52.4 331.158 51.6667 330.598 50.76C330.064 49.8267 329.704 48.7733 329.518 47.6C329.331 46.4 329.238 45.16 329.238 43.88H331.958ZM350.398 53V24.2H369.558V26.52H353.118V36.92H367.958V39.24H353.118V50.68H369.958V53H350.398ZM374.771 44.4C374.878 45.68 375.158 46.7733 375.611 47.68C376.091 48.56 376.691 49.28 377.411 49.84C378.158 50.4 379.011 50.8133 379.971 51.08C380.931 51.32 381.958 51.44 383.051 51.44C384.331 51.44 385.438 51.28 386.371 50.96C387.304 50.64 388.064 50.2133 388.651 49.68C389.238 49.12 389.664 48.48 389.931 47.76C390.224 47.04 390.371 46.28 390.371 45.48C390.371 44.36 390.118 43.4533 389.611 42.76C389.104 42.0667 388.438 41.5067 387.611 41.08C386.811 40.6267 385.878 40.2667 384.811 40C383.771 39.7333 382.691 39.48 381.571 39.24C380.478 38.9733 379.398 38.6667 378.331 38.32C377.291 37.9733 376.358 37.5067 375.531 36.92C374.731 36.3333 374.078 35.5867 373.571 34.68C373.064 33.7467 372.811 32.5733 372.811 31.16C372.811 30.1733 373.011 29.2133 373.411 28.28C373.838 27.3467 374.451 26.52 375.251 25.8C376.078 25.08 377.104 24.5067 378.331 24.08C379.558 23.6533 380.971 23.44 382.571 23.44C384.198 23.44 385.611 23.6667 386.811 24.12C388.038 24.5733 389.051 25.2 389.851 26C390.651 26.7733 391.251 27.68 391.651 28.72C392.051 29.76 392.251 30.8667 392.251 32.04H389.651C389.651 30.9467 389.451 30 389.051 29.2C388.678 28.4 388.158 27.7467 387.491 27.24C386.824 26.7333 386.064 26.36 385.211 26.12C384.358 25.88 383.478 25.76 382.571 25.76C381.184 25.76 380.011 25.96 379.051 26.36C378.118 26.7333 377.371 27.2267 376.811 27.84C376.251 28.4533 375.864 29.1333 375.651 29.88C375.438 30.6267 375.398 31.3733 375.531 32.12C375.691 33.0533 376.064 33.8 376.651 34.36C377.238 34.92 377.958 35.3867 378.811 35.76C379.664 36.1067 380.598 36.4 381.611 36.64C382.651 36.8533 383.704 37.0933 384.771 37.36C385.838 37.6 386.864 37.8933 387.851 38.24C388.864 38.5867 389.758 39.0533 390.531 39.64C391.304 40.2267 391.918 40.9867 392.371 41.92C392.851 42.8267 393.091 43.9733 393.091 45.36C393.091 48.0267 392.171 50.0933 390.331 51.56C388.491 53.0267 385.904 53.76 382.571 53.76C381.078 53.76 379.691 53.56 378.411 53.16C377.131 52.7867 376.024 52.2133 375.091 51.44C374.158 50.64 373.424 49.6667 372.891 48.52C372.384 47.3467 372.131 45.9733 372.131 44.4H374.771Z" fill="#122315"/>
</svg>
