<svg width="368" height="67" viewBox="0 0 368 67" fill="none" xmlns="http://www.w3.org/2000/svg">
<rect x="3" y="3" width="362" height="61" rx="3" stroke="black" stroke-width="2"/>
<path d="M15.564 46C15.324 46 15.108 45.916 14.916 45.748C14.748 45.58 14.664 45.364 14.664 45.1V21.7C14.664 21.436 14.748 21.22 14.916 21.052C15.108 20.884 15.324 20.8 15.564 20.8H18.912C19.272 20.8 19.536 20.896 19.704 21.088C19.896 21.28 20.028 21.424 20.1 21.52L26.724 33.724L33.42 21.52C33.468 21.424 33.576 21.28 33.744 21.088C33.936 20.896 34.212 20.8 34.572 20.8H37.92C38.184 20.8 38.4 20.884 38.568 21.052C38.736 21.22 38.82 21.436 38.82 21.7V45.1C38.82 45.364 38.736 45.58 38.568 45.748C38.4 45.916 38.184 46 37.92 46H34.248C34.008 46 33.804 45.916 33.636 45.748C33.468 45.58 33.384 45.364 33.384 45.1V30.556L28.812 39.124C28.692 39.34 28.536 39.532 28.344 39.7C28.152 39.868 27.9 39.952 27.588 39.952H25.896C25.584 39.952 25.332 39.868 25.14 39.7C24.948 39.532 24.792 39.34 24.672 39.124L20.1 30.556V45.1C20.1 45.364 20.016 45.58 19.848 45.748C19.68 45.916 19.476 46 19.236 46H15.564ZM41.6041 46C41.3881 46 41.2081 45.928 41.0641 45.784C40.9201 45.616 40.8481 45.436 40.8481 45.244C40.8481 45.124 40.8601 45.016 40.8841 44.92L49.4521 21.772C49.5241 21.508 49.6681 21.28 49.8841 21.088C50.1001 20.896 50.4001 20.8 50.7841 20.8H55.3921C55.7761 20.8 56.0761 20.896 56.2921 21.088C56.5081 21.28 56.6521 21.508 56.7241 21.772L65.2921 44.92C65.3161 45.016 65.3281 45.124 65.3281 45.244C65.3281 45.436 65.2561 45.616 65.1121 45.784C64.9681 45.928 64.7881 46 64.5721 46H60.8281C60.4681 46 60.2041 45.916 60.0361 45.748C59.8681 45.58 59.7601 45.424 59.7121 45.28L58.1641 41.248H48.0121L46.4641 45.28C46.4161 45.424 46.3081 45.58 46.1401 45.748C45.9721 45.916 45.7081 46 45.3481 46H41.6041ZM49.3441 36.604H56.7961L53.0881 26.236L49.3441 36.604ZM68.2478 46C67.9838 46 67.7678 45.916 67.5998 45.748C67.4318 45.58 67.3478 45.364 67.3478 45.1V21.7C67.3478 21.436 67.4318 21.22 67.5998 21.052C67.7678 20.884 67.9838 20.8 68.2478 20.8H71.5238C71.8838 20.8 72.1478 20.884 72.3158 21.052C72.4838 21.22 72.5918 21.352 72.6398 21.448L82.2518 36.46V21.7C82.2518 21.436 82.3358 21.22 82.5038 21.052C82.6718 20.884 82.8758 20.8 83.1158 20.8H86.7878C87.0518 20.8 87.2678 20.884 87.4358 21.052C87.6038 21.22 87.6878 21.436 87.6878 21.7V45.1C87.6878 45.34 87.6038 45.556 87.4358 45.748C87.2678 45.916 87.0518 46 86.7878 46H83.4758C83.1158 46 82.8518 45.916 82.6838 45.748C82.5398 45.556 82.4318 45.424 82.3598 45.352L72.7838 30.808V45.1C72.7838 45.364 72.6998 45.58 72.5318 45.748C72.3638 45.916 72.1478 46 71.8838 46H68.2478ZM92.8318 46C92.5678 46 92.3518 45.916 92.1838 45.748C92.0158 45.58 91.9318 45.364 91.9318 45.1V21.7C91.9318 21.436 92.0158 21.22 92.1838 21.052C92.3518 20.884 92.5678 20.8 92.8318 20.8H101.868C104.268 20.8 106.272 21.184 107.88 21.952C109.488 22.696 110.712 23.8 111.552 25.264C112.416 26.704 112.872 28.492 112.92 30.628C112.944 31.684 112.956 32.608 112.956 33.4C112.956 34.192 112.944 35.104 112.92 36.136C112.848 38.368 112.404 40.216 111.588 41.68C110.772 43.144 109.572 44.236 107.988 44.956C106.404 45.652 104.424 46 102.048 46H92.8318ZM97.6558 41.356H101.868C103.068 41.356 104.052 41.176 104.82 40.816C105.588 40.456 106.152 39.892 106.512 39.124C106.896 38.332 107.1 37.312 107.124 36.064C107.148 35.368 107.16 34.744 107.16 34.192C107.184 33.64 107.184 33.088 107.16 32.536C107.16 31.984 107.148 31.372 107.124 30.7C107.076 28.9 106.608 27.58 105.72 26.74C104.856 25.876 103.512 25.444 101.688 25.444H97.6558V41.356ZM124.799 46.36C123.455 46.36 122.183 46.192 120.983 45.856C119.783 45.52 118.715 45.016 117.779 44.344C116.843 43.648 116.099 42.796 115.547 41.788C115.019 40.78 114.731 39.604 114.683 38.26C114.683 38.044 114.755 37.864 114.899 37.72C115.043 37.552 115.235 37.468 115.475 37.468H119.579C119.891 37.468 120.131 37.552 120.299 37.72C120.491 37.888 120.635 38.128 120.731 38.44C120.851 39.208 121.103 39.832 121.487 40.312C121.871 40.792 122.351 41.152 122.927 41.392C123.527 41.608 124.199 41.716 124.943 41.716C126.311 41.716 127.355 41.272 128.075 40.384C128.819 39.496 129.191 38.236 129.191 36.604V25.588H117.203C116.963 25.588 116.759 25.504 116.591 25.336C116.423 25.168 116.339 24.964 116.339 24.724V21.7C116.339 21.436 116.423 21.22 116.591 21.052C116.759 20.884 116.963 20.8 117.203 20.8H134.159C134.423 20.8 134.639 20.884 134.807 21.052C134.975 21.22 135.059 21.436 135.059 21.7V36.748C135.059 38.812 134.627 40.564 133.763 42.004C132.899 43.42 131.699 44.5 130.163 45.244C128.627 45.988 126.839 46.36 124.799 46.36ZM139.996 46C139.732 46 139.516 45.916 139.348 45.748C139.18 45.58 139.096 45.364 139.096 45.1V21.7C139.096 21.436 139.18 21.22 139.348 21.052C139.516 20.884 139.732 20.8 139.996 20.8H156.304C156.568 20.8 156.784 20.884 156.952 21.052C157.12 21.22 157.204 21.436 157.204 21.7V24.58C157.204 24.82 157.12 25.024 156.952 25.192C156.784 25.36 156.568 25.444 156.304 25.444H144.64V31.096H155.512C155.776 31.096 155.992 31.18 156.16 31.348C156.328 31.516 156.412 31.732 156.412 31.996V34.66C156.412 34.9 156.328 35.104 156.16 35.272C155.992 35.44 155.776 35.524 155.512 35.524H144.64V41.356H156.592C156.856 41.356 157.072 41.44 157.24 41.608C157.408 41.776 157.492 41.992 157.492 42.256V45.1C157.492 45.364 157.408 45.58 157.24 45.748C157.072 45.916 156.856 46 156.592 46H139.996ZM169.764 46.36C167.46 46.36 165.528 46.024 163.968 45.352C162.432 44.68 161.268 43.804 160.476 42.724C159.684 41.644 159.264 40.492 159.216 39.268C159.216 39.076 159.288 38.908 159.432 38.764C159.576 38.596 159.756 38.512 159.972 38.512H163.824C164.136 38.512 164.376 38.584 164.544 38.728C164.712 38.848 164.868 39.004 165.012 39.196C165.18 39.604 165.444 40 165.804 40.384C166.188 40.768 166.704 41.092 167.352 41.356C168 41.596 168.804 41.716 169.764 41.716C171.324 41.716 172.488 41.464 173.256 40.96C174.048 40.456 174.444 39.772 174.444 38.908C174.444 38.284 174.228 37.78 173.796 37.396C173.388 37.012 172.728 36.664 171.816 36.352C170.928 36.04 169.74 35.704 168.252 35.344C166.452 34.96 164.916 34.468 163.644 33.868C162.396 33.244 161.448 32.452 160.8 31.492C160.176 30.508 159.864 29.296 159.864 27.856C159.864 26.416 160.26 25.144 161.052 24.04C161.844 22.912 162.96 22.036 164.4 21.412C165.84 20.764 167.556 20.44 169.548 20.44C171.156 20.44 172.572 20.656 173.796 21.088C175.044 21.52 176.076 22.084 176.892 22.78C177.732 23.476 178.368 24.22 178.8 25.012C179.232 25.804 179.46 26.572 179.484 27.316C179.484 27.508 179.412 27.688 179.268 27.856C179.124 28 178.944 28.072 178.728 28.072H174.696C174.456 28.072 174.24 28.024 174.048 27.928C173.856 27.832 173.7 27.664 173.58 27.424C173.436 26.8 173.004 26.26 172.284 25.804C171.588 25.324 170.676 25.084 169.548 25.084C168.372 25.084 167.436 25.3 166.74 25.732C166.068 26.164 165.732 26.824 165.732 27.712C165.732 28.288 165.9 28.78 166.236 29.188C166.596 29.572 167.184 29.92 168 30.232C168.84 30.52 169.944 30.844 171.312 31.204C173.424 31.636 175.14 32.152 176.46 32.752C177.78 33.352 178.752 34.132 179.376 35.092C180 36.028 180.312 37.216 180.312 38.656C180.312 40.264 179.856 41.644 178.944 42.796C178.056 43.948 176.82 44.836 175.236 45.46C173.676 46.06 171.852 46.36 169.764 46.36ZM190.764 46.36C189.108 46.36 187.656 46.06 186.408 45.46C185.16 44.86 184.188 44.032 183.492 42.976C182.796 41.896 182.448 40.66 182.448 39.268C182.448 38.164 182.676 37.204 183.132 36.388C183.612 35.548 184.236 34.804 185.004 34.156C185.772 33.508 186.612 32.92 187.524 32.392C186.396 31.192 185.592 30.136 185.112 29.224C184.656 28.312 184.428 27.364 184.428 26.38C184.428 25.3 184.704 24.316 185.256 23.428C185.808 22.54 186.588 21.82 187.596 21.268C188.604 20.716 189.792 20.44 191.16 20.44C192.48 20.44 193.632 20.704 194.616 21.232C195.624 21.76 196.404 22.468 196.956 23.356C197.508 24.244 197.784 25.24 197.784 26.344C197.784 27.4 197.532 28.324 197.028 29.116C196.524 29.908 195.852 30.616 195.012 31.24C194.196 31.864 193.296 32.452 192.312 33.004L198.432 39.016C198.816 38.344 199.176 37.564 199.512 36.676C199.872 35.788 200.148 34.744 200.34 33.544C200.412 33.064 200.676 32.824 201.132 32.824H202.716C202.932 32.824 203.112 32.896 203.256 33.04C203.4 33.184 203.472 33.364 203.472 33.58C203.448 34.108 203.364 34.672 203.22 35.272C203.1 35.872 202.908 36.508 202.644 37.18C202.404 37.852 202.104 38.524 201.744 39.196C201.408 39.844 201.012 40.492 200.556 41.14L204.228 44.776C204.444 44.968 204.552 45.148 204.552 45.316C204.552 45.532 204.492 45.7 204.372 45.82C204.252 45.94 204.072 46 203.832 46H201.816C201.576 46 201.372 45.964 201.204 45.892C201.06 45.82 200.94 45.736 200.844 45.64L198.468 43.3C197.532 44.212 196.428 44.956 195.156 45.532C193.884 46.084 192.42 46.36 190.764 46.36ZM190.764 43.48C191.724 43.48 192.684 43.288 193.644 42.904C194.604 42.496 195.492 41.896 196.308 41.104L189.576 34.516C188.544 35.092 187.644 35.752 186.876 36.496C186.132 37.216 185.76 38.116 185.76 39.196C185.76 40.108 185.988 40.888 186.444 41.536C186.924 42.16 187.548 42.64 188.316 42.976C189.084 43.312 189.9 43.48 190.764 43.48ZM190.332 30.916C191.1 30.484 191.808 30.052 192.456 29.62C193.128 29.188 193.656 28.708 194.04 28.18C194.448 27.652 194.652 27.052 194.652 26.38C194.652 25.42 194.316 24.652 193.644 24.076C192.972 23.5 192.144 23.212 191.16 23.212C190.224 23.212 189.396 23.5 188.676 24.076C187.98 24.628 187.632 25.408 187.632 26.416C187.632 26.824 187.704 27.244 187.848 27.676C188.016 28.084 188.292 28.54 188.676 29.044C189.06 29.548 189.612 30.172 190.332 30.916ZM208.524 46C208.284 46 208.092 45.928 207.948 45.784C207.804 45.64 207.732 45.448 207.732 45.208V21.628C207.732 21.364 207.804 21.16 207.948 21.016C208.092 20.872 208.284 20.8 208.524 20.8H217.272C218.952 20.8 220.404 21.088 221.628 21.664C222.876 22.216 223.836 23.044 224.508 24.148C225.204 25.252 225.552 26.62 225.552 28.252C225.552 29.884 225.204 31.252 224.508 32.356C223.836 33.46 222.876 34.3 221.628 34.876C220.404 35.428 218.952 35.704 217.272 35.704H210V45.208C210 45.448 209.928 45.64 209.784 45.784C209.64 45.928 209.436 46 209.172 46H208.524ZM210 33.544H217.092C219.18 33.544 220.728 33.088 221.736 32.176C222.768 31.264 223.284 29.956 223.284 28.252C223.284 26.548 222.768 25.24 221.736 24.328C220.728 23.416 219.18 22.96 217.092 22.96H210V33.544ZM238.33 46.36C236.386 46.36 234.718 46 233.326 45.28C231.958 44.56 230.902 43.456 230.158 41.968C229.414 40.48 229.042 38.572 229.042 36.244V21.628C229.042 21.364 229.114 21.16 229.258 21.016C229.402 20.872 229.594 20.8 229.834 20.8H230.482C230.746 20.8 230.95 20.872 231.094 21.016C231.238 21.16 231.31 21.364 231.31 21.628V36.352C231.31 39.04 231.934 41.02 233.182 42.292C234.454 43.564 236.17 44.2 238.33 44.2C240.466 44.2 242.158 43.564 243.406 42.292C244.678 41.02 245.314 39.04 245.314 36.352V21.628C245.314 21.364 245.386 21.16 245.53 21.016C245.698 20.872 245.902 20.8 246.142 20.8H246.79C247.03 20.8 247.222 20.872 247.366 21.016C247.51 21.16 247.582 21.364 247.582 21.628V36.244C247.582 38.572 247.21 40.48 246.466 41.968C245.746 43.456 244.702 44.56 243.334 45.28C241.966 46 240.298 46.36 238.33 46.36ZM262.14 46.36C260.196 46.36 258.528 46 257.136 45.28C255.768 44.56 254.712 43.456 253.968 41.968C253.224 40.48 252.852 38.572 252.852 36.244V21.628C252.852 21.364 252.924 21.16 253.068 21.016C253.212 20.872 253.404 20.8 253.644 20.8H254.292C254.556 20.8 254.76 20.872 254.904 21.016C255.048 21.16 255.12 21.364 255.12 21.628V36.352C255.12 39.04 255.744 41.02 256.992 42.292C258.264 43.564 259.98 44.2 262.14 44.2C264.276 44.2 265.968 43.564 267.216 42.292C268.488 41.02 269.124 39.04 269.124 36.352V21.628C269.124 21.364 269.196 21.16 269.34 21.016C269.508 20.872 269.712 20.8 269.952 20.8H270.6C270.84 20.8 271.032 20.872 271.176 21.016C271.32 21.16 271.392 21.364 271.392 21.628V36.244C271.392 38.572 271.02 40.48 270.276 41.968C269.556 43.456 268.512 44.56 267.144 45.28C265.776 46 264.108 46.36 262.14 46.36ZM283.179 46C282.939 46 282.747 45.928 282.603 45.784C282.459 45.64 282.387 45.448 282.387 45.208V22.96H275.259C275.019 22.96 274.827 22.888 274.683 22.744C274.539 22.6 274.467 22.408 274.467 22.168V21.628C274.467 21.364 274.539 21.16 274.683 21.016C274.827 20.872 275.019 20.8 275.259 20.8H291.747C292.011 20.8 292.215 20.872 292.359 21.016C292.503 21.16 292.575 21.364 292.575 21.628V22.168C292.575 22.408 292.503 22.6 292.359 22.744C292.215 22.888 292.011 22.96 291.747 22.96H284.655V45.208C284.655 45.448 284.583 45.64 284.439 45.784C284.295 45.928 284.091 46 283.827 46H283.179ZM302.822 46.36C301.646 46.36 300.542 46.216 299.51 45.928C298.478 45.64 297.554 45.196 296.738 44.596C295.946 43.996 295.31 43.24 294.83 42.328C294.374 41.392 294.122 40.288 294.074 39.016C294.074 38.8 294.134 38.62 294.254 38.476C294.398 38.308 294.59 38.224 294.83 38.224H295.55C295.79 38.224 295.97 38.296 296.09 38.44C296.234 38.584 296.318 38.764 296.342 38.98C296.438 40.228 296.786 41.236 297.386 42.004C298.01 42.772 298.79 43.336 299.726 43.696C300.686 44.032 301.718 44.2 302.822 44.2C304.934 44.2 306.53 43.516 307.61 42.148C308.714 40.756 309.266 38.968 309.266 36.784V22.96H295.982C295.742 22.96 295.55 22.888 295.406 22.744C295.262 22.6 295.19 22.408 295.19 22.168V21.592C295.19 21.352 295.262 21.16 295.406 21.016C295.55 20.872 295.742 20.8 295.982 20.8H310.706C310.97 20.8 311.174 20.872 311.318 21.016C311.462 21.16 311.534 21.364 311.534 21.628V36.82C311.534 38.692 311.198 40.348 310.526 41.788C309.854 43.228 308.87 44.356 307.574 45.172C306.302 45.964 304.718 46.36 302.822 46.36ZM317.804 46C317.564 46 317.372 45.928 317.228 45.784C317.084 45.64 317.012 45.448 317.012 45.208V21.628C317.012 21.364 317.084 21.16 317.228 21.016C317.372 20.872 317.564 20.8 317.804 20.8H331.844C332.108 20.8 332.312 20.872 332.456 21.016C332.6 21.16 332.672 21.364 332.672 21.628V22.168C332.672 22.408 332.6 22.6 332.456 22.744C332.312 22.888 332.108 22.96 331.844 22.96H319.28V32.14H331.052C331.316 32.14 331.52 32.212 331.664 32.356C331.808 32.5 331.88 32.704 331.88 32.968V33.508C331.88 33.748 331.808 33.94 331.664 34.084C331.52 34.228 331.316 34.3 331.052 34.3H319.28V43.84H332.132C332.396 43.84 332.6 43.912 332.744 44.056C332.888 44.2 332.96 44.404 332.96 44.668V45.208C332.96 45.448 332.888 45.64 332.744 45.784C332.6 45.928 332.396 46 332.132 46H317.804ZM344.797 46.36C342.853 46.36 341.197 46.048 339.829 45.424C338.485 44.8 337.453 43.996 336.733 43.012C336.013 42.028 335.629 40.984 335.581 39.88C335.581 39.688 335.653 39.52 335.797 39.376C335.941 39.232 336.121 39.16 336.337 39.16H337.057C337.297 39.16 337.477 39.232 337.597 39.376C337.741 39.52 337.825 39.688 337.849 39.88C337.945 40.552 338.245 41.224 338.749 41.896C339.253 42.544 339.997 43.096 340.981 43.552C341.965 43.984 343.237 44.2 344.797 44.2C347.149 44.2 348.865 43.78 349.945 42.94C351.025 42.076 351.565 40.924 351.565 39.484C351.565 38.524 351.277 37.756 350.701 37.18C350.149 36.58 349.297 36.052 348.145 35.596C346.993 35.116 345.517 34.588 343.717 34.012C342.013 33.46 340.609 32.896 339.505 32.32C338.401 31.72 337.585 31 337.057 30.16C336.553 29.32 336.301 28.24 336.301 26.92C336.301 25.696 336.625 24.604 337.273 23.644C337.921 22.66 338.857 21.88 340.081 21.304C341.329 20.728 342.841 20.44 344.617 20.44C346.033 20.44 347.269 20.632 348.325 21.016C349.381 21.4 350.257 21.916 350.953 22.564C351.649 23.188 352.177 23.872 352.537 24.616C352.897 25.336 353.089 26.044 353.113 26.74C353.113 26.908 353.053 27.076 352.933 27.244C352.813 27.388 352.621 27.46 352.357 27.46H351.637C351.517 27.46 351.361 27.412 351.169 27.316C351.001 27.22 350.893 27.028 350.845 26.74C350.701 25.54 350.065 24.556 348.937 23.788C347.833 22.996 346.393 22.6 344.617 22.6C342.841 22.6 341.389 22.948 340.261 23.644C339.133 24.34 338.569 25.432 338.569 26.92C338.569 27.88 338.821 28.672 339.325 29.296C339.829 29.896 340.621 30.436 341.701 30.916C342.781 31.372 344.173 31.876 345.877 32.428C347.677 33.004 349.165 33.58 350.341 34.156C351.517 34.732 352.393 35.44 352.969 36.28C353.545 37.096 353.833 38.164 353.833 39.484C353.833 40.948 353.461 42.196 352.717 43.228C351.997 44.236 350.965 45.016 349.621 45.568C348.277 46.096 346.669 46.36 344.797 46.36Z" fill="black"/>
</svg>
